<svg width="156" height="26" viewBox="0 0 156 26" fill="none" xmlns="http://www.w3.org/2000/svg">
<g id="GET IT ON">
<path id="G" d="M24.67 13.9506C24.67 17.2071 23.67 19.8152 21.7 21.7604C19.435 24.0662 16.485 25.2265 12.87 25.2265C9.41498 25.2265 6.46496 24.0467 4.04496 21.7214C1.61996 19.3619 0.409973 16.4661 0.409973 13C0.409973 9.53387 1.61996 6.63812 4.04496 4.29813C6.46496 1.95325 9.41498 0.773499 12.87 0.773499C14.59 0.773499 16.23 1.11962 17.795 1.76312C19.355 2.4115 20.625 3.289 21.545 4.37125L19.455 6.4285C17.85 4.58088 15.665 3.66925 12.87 3.66925C10.35 3.66925 8.16497 4.52725 6.30997 6.25787C4.47497 7.99337 3.55496 10.2407 3.55496 13C3.55496 15.7592 4.47497 18.0261 6.30997 19.7616C8.16497 21.4727 10.35 22.3502 12.87 22.3502C15.545 22.3502 17.795 21.4727 19.57 19.7421C20.74 18.5965 21.405 17.017 21.58 14.9987H12.87V12.181H24.49C24.63 12.7904 24.67 13.3802 24.67 13.9506V13.9506Z" fill="white" stroke="white" stroke-width="0.16" stroke-miterlimit="10"/>
<path id="E" d="M43.105 4.18113H32.19V11.5911H42.03V14.4089H32.19V21.8189H43.105V24.6902H29.1V1.30975H43.105V4.18113Z" fill="white" stroke="white" stroke-width="0.16" stroke-miterlimit="10"/>
<path id="T" d="M56.1149 24.6902H53.0249V4.18113H46.3299V1.30975H62.8149V4.18113H56.1149V24.6902V24.6902Z" fill="white" stroke="white" stroke-width="0.16" stroke-miterlimit="10"/>
<path id="I" d="M74.7451 24.6902V1.30975H77.8301V24.6902H74.7451Z" fill="white" stroke="white" stroke-width="0.16" stroke-miterlimit="10"/>
<path id="T_2" d="M91.5049 24.6902H88.4399V4.18113H81.7199V1.30975H98.2249V4.18113H91.5049V24.6902Z" fill="white" stroke="white" stroke-width="0.16" stroke-miterlimit="10"/>
<path id="O" d="M129.435 21.6824C127.07 24.0467 124.14 25.2265 120.645 25.2265C117.13 25.2265 114.2 24.0467 111.835 21.6824C109.475 19.3229 108.3 16.4271 108.3 13C108.3 9.57287 109.475 6.67712 111.835 4.31762C114.2 1.95325 117.13 0.773499 120.645 0.773499C124.12 0.773499 127.05 1.95325 129.415 4.33712C131.795 6.71612 132.97 9.59237 132.97 13C132.97 16.4271 131.795 19.3229 129.435 21.6824ZM114.12 19.7226C115.9 21.4727 118.065 22.3502 120.645 22.3502C123.205 22.3502 125.39 21.4727 127.15 19.7226C128.925 17.9725 129.825 15.7251 129.825 13C129.825 10.2749 128.925 8.0275 127.15 6.27738C125.39 4.52725 123.205 3.64975 120.645 3.64975C118.065 3.64975 115.9 4.52725 114.12 6.27738C112.345 8.0275 111.445 10.2749 111.445 13C111.445 15.7251 112.345 17.9725 114.12 19.7226V19.7226Z" fill="white" stroke="white" stroke-width="0.16" stroke-miterlimit="10"/>
<path id="N" d="M137.305 24.6902V1.30975H141.055L152.715 19.4935H152.85L152.715 14.9987V1.30975H155.8V24.6902H152.58L140.37 5.6095H140.235L140.37 10.1237V24.6902H137.305V24.6902Z" fill="white" stroke="white" stroke-width="0.16" stroke-miterlimit="10"/>
</g>
</svg>
